<?xml version="1.0" encoding="UTF-8"?> <svg xmlns="http://www.w3.org/2000/svg" width="55" height="55" viewBox="0 0 55 55" fill="none"><path d="M47.0367 20.916C44.9621 20.2531 42.8679 19.7043 40.6905 19.5339C39.4031 19.4332 38.1166 19.401 36.8426 19.574C35.0919 19.8117 33.4212 20.3479 31.8938 21.3081C30.7102 22.0522 29.7104 23.0122 28.8188 24.1019C27.7406 25.4197 26.9854 26.945 26.236 28.474C26.156 28.6373 26.1127 28.8354 25.8658 28.9817C25.9752 28.4836 26.0673 28.0556 26.1634 27.6286C26.537 25.9697 26.6422 24.2908 26.425 22.6039C26.1629 20.5684 25.5079 18.6507 24.6481 16.8142C23.9256 15.2709 23.0578 13.8135 22.0934 12.4175C20.966 10.7858 19.7537 9.22731 18.4083 7.78756C17.1929 6.487 15.9799 5.18005 14.6369 4.01804C13.7422 3.24396 12.8521 2.46171 11.8747 1.79808C11.7561 1.71756 11.6505 1.59972 11.445 1.71442C11.7412 2.18432 12.0127 2.64578 12.3129 3.08598C13.3684 4.63338 14.3511 6.22904 15.2059 7.90489C16.632 10.7008 17.7479 13.6198 18.377 16.7295C18.6529 18.0936 18.8491 19.4711 18.9051 20.8592C18.9472 21.9018 18.9408 22.9492 18.8566 23.9984C18.7143 25.771 18.374 27.4961 17.8833 29.1917C16.95 32.4167 15.5323 35.4169 13.8864 38.3013C12.5041 40.7238 10.9492 43.0267 9.27875 45.2446C8.65972 46.0665 8.05081 46.8966 7.43954 47.7248C7.36772 47.8221 7.26774 47.9343 7.39277 48.0543C7.49295 48.1504 7.60068 48.0659 7.68877 48.0128C9.43853 46.9585 11.2402 45.9949 12.9374 44.8493C15.7186 42.9718 18.3589 40.9154 20.5912 38.3285C21.7494 36.9863 22.8043 35.5746 23.703 34.0346C23.9606 33.5933 24.2084 33.1459 24.4731 32.6793C24.5992 32.848 24.5225 32.9472 24.4919 33.0496C23.7177 35.6337 23.4029 38.2961 23.2796 40.986C23.1906 42.9269 23.3607 44.8641 23.4492 46.8013C23.4669 47.1876 23.5012 47.5785 23.5355 47.9665C23.6346 49.088 23.7418 50.2087 23.8386 51.3304C23.926 52.3421 24.001 53.3551 24.0894 54.3668C24.1009 54.4981 24.1311 54.6485 24.3001 54.6667C24.4103 54.6112 24.4102 54.51 24.4296 54.4139C24.6845 53.145 24.9734 51.885 25.3533 50.6495C26.2595 47.7026 27.483 44.9038 28.9541 42.2171C29.9833 40.3373 31.1124 38.5279 32.3558 36.7949C33.4046 35.3332 34.5055 33.9196 35.6857 32.5668C36.8874 31.1895 38.19 29.9369 39.5744 28.7677C40.8777 27.667 42.2718 26.7109 43.7305 25.8495C45.7703 24.6449 47.9267 23.7435 50.1788 23.0746C50.4919 22.9816 50.8661 22.9467 51.0822 22.5243C49.7751 21.8731 48.4369 21.4036 47.0367 20.916Z" fill="#DDE8D4"></path></svg> 