<?xml version="1.0" encoding="UTF-8"?> <svg xmlns="http://www.w3.org/2000/svg" width="847" height="236" viewBox="0 0 847 236" fill="none"><path d="M548 232V148.032H558.624V183.232H597.792V148.032H608.416V232H597.792V192.448H558.624V232H548ZM662.476 233.536C655.479 233.536 649.249 231.744 643.788 228.16C638.412 224.576 634.188 219.499 631.116 212.928C628.129 206.357 626.636 198.592 626.636 189.632C626.636 180.672 628.129 172.992 631.116 166.592C634.188 160.107 638.412 155.157 643.788 151.744C649.249 148.245 655.479 146.496 662.476 146.496C669.559 146.496 675.788 148.245 681.164 151.744C686.54 155.157 690.764 160.107 693.836 166.592C696.908 172.992 698.444 180.672 698.444 189.632C698.444 198.592 696.908 206.357 693.836 212.928C690.764 219.499 686.54 224.576 681.164 228.16C675.788 231.744 669.559 233.536 662.476 233.536ZM662.476 224.064C667.511 224.064 671.863 222.656 675.532 219.84C679.287 217.024 682.188 213.056 684.236 207.936C686.284 202.731 687.308 196.629 687.308 189.632C687.308 182.72 686.284 176.747 684.236 171.712C682.188 166.677 679.287 162.795 675.532 160.064C671.863 157.248 667.511 155.84 662.476 155.84C657.527 155.84 653.175 157.248 649.42 160.064C645.665 162.795 642.764 166.677 640.716 171.712C638.668 176.747 637.644 182.72 637.644 189.632C637.644 196.629 638.668 202.731 640.716 207.936C642.764 213.056 645.665 217.024 649.42 219.84C653.175 222.656 657.527 224.064 662.476 224.064ZM716.5 232V148.032H764.884V156.992H727.124V185.408H759.124V194.368H727.124V232H716.5Z" fill="#84BEAE" fill-opacity="0.42"></path><path d="M546 230V146.032H556.624V181.232H595.792V146.032H606.416V230H595.792V190.448H556.624V230H546ZM660.476 231.536C653.479 231.536 647.249 229.744 641.788 226.16C636.412 222.576 632.188 217.499 629.116 210.928C626.129 204.357 624.636 196.592 624.636 187.632C624.636 178.672 626.129 170.992 629.116 164.592C632.188 158.107 636.412 153.157 641.788 149.744C647.249 146.245 653.479 144.496 660.476 144.496C667.559 144.496 673.788 146.245 679.164 149.744C684.54 153.157 688.764 158.107 691.836 164.592C694.908 170.992 696.444 178.672 696.444 187.632C696.444 196.592 694.908 204.357 691.836 210.928C688.764 217.499 684.54 222.576 679.164 226.16C673.788 229.744 667.559 231.536 660.476 231.536ZM660.476 222.064C665.511 222.064 669.863 220.656 673.532 217.84C677.287 215.024 680.188 211.056 682.236 205.936C684.284 200.731 685.308 194.629 685.308 187.632C685.308 180.72 684.284 174.747 682.236 169.712C680.188 164.677 677.287 160.795 673.532 158.064C669.863 155.248 665.511 153.84 660.476 153.84C655.527 153.84 651.175 155.248 647.42 158.064C643.665 160.795 640.764 164.677 638.716 169.712C636.668 174.747 635.644 180.72 635.644 187.632C635.644 194.629 636.668 200.731 638.716 205.936C640.764 211.056 643.665 215.024 647.42 217.84C651.175 220.656 655.527 222.064 660.476 222.064ZM714.5 230V146.032H762.884V154.992H725.124V183.408H757.124V192.368H725.124V230H714.5Z" fill="#548A26"></path><path d="M2 234V150.032H15.44L31.312 194.96C32.336 197.776 33.2747 200.592 34.128 203.408C35.0667 206.224 36.0053 209.211 36.944 212.368H37.456C38.3947 209.211 39.2907 206.224 40.144 203.408C40.9973 200.592 41.8933 197.776 42.832 194.96L58.704 150.032H72.016V234H62.032V187.792C62.032 185.317 62.1173 182.544 62.288 179.472C62.4587 176.4 62.6293 173.371 62.8 170.384C63.056 167.312 63.312 164.539 63.568 162.064H63.056L56.528 182.288L40.784 225.68H32.976L17.232 182.288L10.704 162.064H10.192C10.448 164.539 10.6613 167.312 10.832 170.384C11.088 173.371 11.3013 176.4 11.472 179.472C11.6427 182.544 11.728 185.317 11.728 187.792V234H2ZM124.824 235.536C120.472 235.536 116.461 234.939 112.792 233.744C109.208 232.464 106.051 230.459 103.32 227.728C100.589 224.912 98.456 221.2 96.92 216.592C95.384 211.984 94.616 206.395 94.616 199.824V150.032H105.24V200.08C105.24 206.651 106.093 211.856 107.8 215.696C109.592 219.451 111.939 222.139 114.84 223.76C117.827 225.296 121.155 226.064 124.824 226.064C128.493 226.064 131.821 225.296 134.808 223.76C137.88 222.139 140.312 219.451 142.104 215.696C143.896 211.856 144.792 206.651 144.792 200.08V150.032H154.904V199.824C154.904 206.395 154.136 211.984 152.6 216.592C151.149 221.2 149.059 224.912 146.328 227.728C143.597 230.459 140.397 232.464 136.728 233.744C133.059 234.939 129.091 235.536 124.824 235.536ZM111.512 142.48C109.805 142.48 108.312 141.883 107.032 140.688C105.837 139.493 105.24 138 105.24 136.208C105.24 134.331 105.837 132.837 107.032 131.728C108.312 130.533 109.805 129.936 111.512 129.936C113.389 129.936 114.883 130.533 115.992 131.728C117.187 132.837 117.784 134.331 117.784 136.208C117.784 138 117.187 139.493 115.992 140.688C114.883 141.883 113.389 142.48 111.512 142.48ZM137.88 142.48C136.088 142.48 134.595 141.883 133.4 140.688C132.205 139.493 131.608 138 131.608 136.208C131.608 134.331 132.205 132.837 133.4 131.728C134.595 130.533 136.088 129.936 137.88 129.936C139.672 129.936 141.165 130.533 142.36 131.728C143.555 132.837 144.152 134.331 144.152 136.208C144.152 138 143.555 139.493 142.36 140.688C141.165 141.883 139.672 142.48 137.88 142.48ZM177.5 234V150.032H203.74C209.457 150.032 214.535 150.8 218.972 152.336C223.409 153.787 226.865 156.261 229.34 159.76C231.9 163.173 233.18 167.781 233.18 173.584C233.18 179.216 231.9 183.867 229.34 187.536C226.865 191.205 223.409 193.979 218.972 195.856C214.535 197.648 209.457 198.544 203.74 198.544H188.124V234H177.5ZM188.124 189.84H202.204C208.775 189.84 213.809 188.517 217.308 185.872C220.807 183.141 222.556 179.045 222.556 173.584C222.556 168.123 220.807 164.283 217.308 162.064C213.809 159.76 208.775 158.608 202.204 158.608H188.124V189.84ZM223.58 234L201.692 195.6L210.012 189.968L235.612 234H223.58ZM250.375 234V150.032H260.999V234H250.375ZM301.408 234V159.12H276.064V150.032H337.504V159.12H312.16V234H301.408ZM339.99 234V227.6L384.15 158.992H343.958V150.032H397.462V156.304L353.174 224.912H397.846V234H339.99Z" fill="#84BEAE" fill-opacity="0.42"></path><path d="M0 232V148.032H13.44L29.312 192.96C30.336 195.776 31.2747 198.592 32.128 201.408C33.0667 204.224 34.0053 207.211 34.944 210.368H35.456C36.3947 207.211 37.2907 204.224 38.144 201.408C38.9973 198.592 39.8933 195.776 40.832 192.96L56.704 148.032H70.016V232H60.032V185.792C60.032 183.317 60.1173 180.544 60.288 177.472C60.4587 174.4 60.6293 171.371 60.8 168.384C61.056 165.312 61.312 162.539 61.568 160.064H61.056L54.528 180.288L38.784 223.68H30.976L15.232 180.288L8.704 160.064H8.192C8.448 162.539 8.6613 165.312 8.832 168.384C9.088 171.371 9.3013 174.4 9.472 177.472C9.6427 180.544 9.728 183.317 9.728 185.792V232H0ZM122.824 233.536C118.472 233.536 114.461 232.939 110.792 231.744C107.208 230.464 104.051 228.459 101.32 225.728C98.589 222.912 96.456 219.2 94.92 214.592C93.384 209.984 92.616 204.395 92.616 197.824V148.032H103.24V198.08C103.24 204.651 104.093 209.856 105.8 213.696C107.592 217.451 109.939 220.139 112.84 221.76C115.827 223.296 119.155 224.064 122.824 224.064C126.493 224.064 129.821 223.296 132.808 221.76C135.88 220.139 138.312 217.451 140.104 213.696C141.896 209.856 142.792 204.651 142.792 198.08V148.032H152.904V197.824C152.904 204.395 152.136 209.984 150.6 214.592C149.149 219.2 147.059 222.912 144.328 225.728C141.597 228.459 138.397 230.464 134.728 231.744C131.059 232.939 127.091 233.536 122.824 233.536ZM109.512 140.48C107.805 140.48 106.312 139.883 105.032 138.688C103.837 137.493 103.24 136 103.24 134.208C103.24 132.331 103.837 130.837 105.032 129.728C106.312 128.533 107.805 127.936 109.512 127.936C111.389 127.936 112.883 128.533 113.992 129.728C115.187 130.837 115.784 132.331 115.784 134.208C115.784 136 115.187 137.493 113.992 138.688C112.883 139.883 111.389 140.48 109.512 140.48ZM135.88 140.48C134.088 140.48 132.595 139.883 131.4 138.688C130.205 137.493 129.608 136 129.608 134.208C129.608 132.331 130.205 130.837 131.4 129.728C132.595 128.533 134.088 127.936 135.88 127.936C137.672 127.936 139.165 128.533 140.36 129.728C141.555 130.837 142.152 132.331 142.152 134.208C142.152 136 141.555 137.493 140.36 138.688C139.165 139.883 137.672 140.48 135.88 140.48ZM175.5 232V148.032H201.74C207.457 148.032 212.535 148.8 216.972 150.336C221.409 151.787 224.865 154.261 227.34 157.76C229.9 161.173 231.18 165.781 231.18 171.584C231.18 177.216 229.9 181.867 227.34 185.536C224.865 189.205 221.409 191.979 216.972 193.856C212.535 195.648 207.457 196.544 201.74 196.544H186.124V232H175.5ZM186.124 187.84H200.204C206.775 187.84 211.809 186.517 215.308 183.872C218.807 181.141 220.556 177.045 220.556 171.584C220.556 166.123 218.807 162.283 215.308 160.064C211.809 157.76 206.775 156.608 200.204 156.608H186.124V187.84ZM221.58 232L199.692 193.6L208.012 187.968L233.612 232H221.58ZM248.375 232V148.032H258.999V232H248.375ZM299.408 232V157.12H274.064V148.032H335.504V157.12H310.16V232H299.408ZM337.99 232V225.6L382.15 156.992H341.958V148.032H395.462V154.304L351.174 222.912H395.846V232H337.99Z" fill="#548A26"></path><path d="M634.316 9.38106C529.113 42.2594 496.875 169.073 487.413 189.906C486.247 192.47 485.961 193.641 486.488 193.641C491.608 193.641 573.233 83.445 671.557 65.6756C683.971 63.4335 696.153 62.4654 707.962 62.4654C745.108 62.4654 778.491 72.048 803.225 81.6276C827.965 91.2087 844.059 100.788 846.636 100.788C847.699 100.788 846.461 99.1546 842.576 95.2156C812.902 65.1212 735.252 4.81055 665.573 4.81055C654.902 4.81055 644.413 6.22494 634.316 9.38106Z" fill="url(#paint0_linear_4318_361)"></path><path d="M148.708 92.2819C147.412 94.1549 147.536 94.9038 149.008 94.9038C151.957 94.9038 160.316 91.8975 173.535 88.8927C186.754 85.8879 204.827 82.8831 227.216 82.8831C250.908 82.8831 279.434 86.2507 312.123 96.5483C427.719 132.961 472.898 193.641 474.687 193.641C475.121 193.641 473.003 190.071 468.719 181.72C430.191 106.622 406.136 53.4959 328.279 13.4329C311.1 4.59141 294.616 0.717285 278.905 0.717285C225.513 0.717285 181.065 45.4805 148.708 92.2819Z" fill="url(#paint1_linear_4318_361)"></path><path d="M461.402 196.13C459.769 206.719 459.2 232.104 468.833 232.104C478.462 232.104 500.294 212.931 497.09 202.164C496.904 201.542 496.623 201.293 496.186 201.293C494.503 201.293 490.5 204.964 480.676 205.183C480.648 205.183 480.62 205.183 480.592 205.183C477.896 205.183 474.502 202.299 471.313 199.414C468.124 196.53 465.139 193.646 463.262 193.646C462.332 193.642 461.675 194.354 461.402 196.13Z" fill="url(#paint2_linear_4318_361)"></path><defs><linearGradient id="paint0_linear_4318_361" x1="486.234" y1="99.2259" x2="847.001" y2="99.2259" gradientUnits="userSpaceOnUse"><stop offset="0.0061" stop-color="#53B6A6"></stop><stop offset="0.0367" stop-color="#98BC95"></stop><stop offset="0.0762" stop-color="#CDBD7F"></stop><stop offset="0.1056" stop-color="#E7BB70"></stop><stop offset="0.1212" stop-color="#F0B96A"></stop><stop offset="0.8727" stop-color="#F0B96A"></stop></linearGradient><linearGradient id="paint1_linear_4318_361" x1="147.814" y1="97.179" x2="474.743" y2="97.179" gradientUnits="userSpaceOnUse"><stop offset="0.0061" stop-color="#53B6A6"></stop><stop offset="0.1156" stop-color="#98BC95"></stop><stop offset="0.2572" stop-color="#CDBD7F"></stop><stop offset="0.3622" stop-color="#E7BB70"></stop><stop offset="0.4182" stop-color="#F0B96A"></stop><stop offset="0.6182" stop-color="#F0B96A"></stop><stop offset="1" stop-color="#53B6A6"></stop></linearGradient><linearGradient id="paint2_linear_4318_361" x1="480.294" y1="197.302" x2="471.422" y2="232.907" gradientUnits="userSpaceOnUse"><stop offset="0.0061" stop-color="#53B6A6"></stop><stop offset="0.0979" stop-color="#98BC95"></stop><stop offset="0.2166" stop-color="#CDBD7F"></stop><stop offset="0.3046" stop-color="#E7BB70"></stop><stop offset="0.3515" stop-color="#F0B96A"></stop><stop offset="0.66" stop-color="#F0B96A"></stop></linearGradient></defs></svg> 