<?xml version="1.0" encoding="UTF-8" standalone="no"?> <svg xmlns:dc="http://purl.org/dc/elements/1.1/" xmlns:cc="http://creativecommons.org/ns#" xmlns:rdf="http://www.w3.org/1999/02/22-rdf-syntax-ns#" xmlns:svg="http://www.w3.org/2000/svg" xmlns="http://www.w3.org/2000/svg" id="svg1255" version="1.1" viewBox="0 0 98.884048 52.01973" height="52.01973mm" width="98.884048mm"><defs id="defs1249"></defs><metadata id="metadata1252"></metadata><g transform="translate(-8.010356,-7.2520414)" id="layer1"><g transform="matrix(0.26458333,0,0,0.26458333,-29.970581,-97.418976)" id="g1510"><path id="path1504" d="m 504.608,560.527 c -4.833,-2.714 -7.241,-6.037 -7.241,-9.959 v -76.281 c 0,-4.98 1.661,-9.014 4.976,-12.107 3.322,-3.094 7.55,-4.641 12.673,-4.641 V 429.471 H 403.204 l -31.919,75.822 -31.687,-75.822 h -75.977 c -6.519,4.709 -12.707,9.349 -18.481,13.885 6.833,5.238 13.835,10.666 21.006,16.283 7.169,5.623 14.489,11.213 21.998,16.791 l -2.935,1.244 -30.543,0.246 -3.172,-1.115 -0.398,-0.32 0.225,75.893 c 0,2.869 -2.347,5.588 -7.018,8.15 -3.924,2.262 -7.623,3.621 -11.098,4.074 v 27.615 h 86.244 v -28.068 c -4.224,0 -8.301,-1.133 -12.224,-3.395 -4.522,-2.563 -6.787,-5.811 -6.787,-9.736 v -60.659 c 0,-1.208 0.975,-1.812 2.939,-1.812 1.361,0 2.269,0.604 2.722,1.812 l 40.744,101.858 h 38.025 L 424.25,491.033 c 0.755,-2.109 1.59,-3.166 2.5,-3.166 1.955,0 2.928,0.83 2.928,2.491 l 0.231,61.792 c 0,2.719 -2.152,5.475 -6.448,8.264 -4.295,2.795 -7.886,4.188 -10.748,4.188 v 27.615 h 104.572 v -28.068 c -4.228,-10e-4 -8.457,-1.206 -12.677,-3.622 z" fill="#423d3c"></path><g id="g1508"><path id="path1506" d="m 261.79,477.92 h -30.538 l -3.175,-1.115 -25.394,-20.845 -30.162,5.101 -4.598,1.429 h -22.168 l -2.205,-1.37 c 7.811,-5.488 15.357,-10.818 22.594,-15.975 7.253,-5.154 14.288,-10.353 21.134,-15.596 -6.355,-4.994 -13.082,-10.191 -20.159,-15.598 -7.077,-5.413 -14.288,-10.619 -21.619,-15.601 l 2.45,-2.249 31.997,-0.494 3.409,1.74 21.763,35.273 24.922,-20.217 2.917,-1.361 h 28.578 l 2.442,1.619 c -7.333,5.064 -14.616,10.221 -21.858,15.401 -7.255,5.206 -14.045,10.303 -20.4,15.292 6.83,5.238 13.848,10.666 21.011,16.283 7.165,5.623 14.489,11.213 21.994,16.791 z" fill="#423d3c"></path></g></g></g></svg> 